<svg xmlns="http://www.w3.org/2000/svg" xmlns:xlink="http://www.w3.org/1999/xlink"><defs><clipPath id="a"><path fill="#fff" transform="translate(12 12)" d="M0 0h24v24H0z"/></clipPath></defs><symbol id="house" viewBox="0 0 80 80"><path fill-rule="evenodd" clip-rule="evenodd" d="M75.892 43.182 78 41.094l-9.94-9.845V4.398H54.205v13.127L40.45 4 3 41.193l2.108 2.089 7.832-7.757v37.591H9.024V76h64.157v-2.884h-5.12v-37.69l7.83 7.756Zm-18.775-35.8h7.931v20.983l-7.931-7.857V7.381Zm7.931 65.635H15.952V32.54L40.45 8.177 65.048 32.54v40.476ZM33.121 68.54h16.064V44.773H33.12v23.768Zm13.052-2.884h-10.14v-18h10.14v18ZM40.85 39.304c-4.216 0-7.73-3.48-7.73-7.757 0-4.276 3.413-7.657 7.73-7.657 4.318 0 7.832 3.38 7.832 7.657 0 4.276-3.514 7.757-7.831 7.757Zm5.02-7.757c0-2.785-2.309-4.972-5.02-4.972-2.71 0-5.02 2.287-5.02 4.972 0 2.784 2.31 4.972 5.02 4.972 2.812 0 5.02-2.287 5.02-4.972Zm-22.79 13.226h-3.013v3.879h3.012v-3.879Zm3.011 0h3.012v3.879h-3.012v-3.879ZM23.08 50.74h-3.012v3.879h3.012V50.74Zm3.012 0h3.012v3.879h-3.012V50.74Zm29.117-5.967h-3.012v3.879h3.012v-3.879Zm3.012 0h3.012v3.879H58.22v-3.879Zm-3.012 5.967h-3.012v3.879h3.012V50.74Zm3.012 0h3.012v3.879H58.22V50.74Z" fill="#81B3D2"/></symbol><symbol id="htmlacademy" viewBox="0 0 60 60"><path fill="currentColor" d="M30.2 5H30L10.3 7.1v36.2L30 55l19.7-11.7V7.1L30.2 5zm17 36.8L30 52 12.8 41.8V27l17.1 10.2V39l-11.7-7v1.8L30 40.9v1.9l-11.8-7v1.8l11.8 7 11.9-7.1v-7.6l5.3-3.2v15.1zm-.1-17-4.7 2.8-2.2 1.3-10.3-6.1v1.8l8.8 5.3h-.1l-.2.1-1.3.7-7.3-4.3v1.8l5.8 3.4-1.4.9-4.3-2.6v1.8l2.9 1.7-2.9 1.7-17-10.1 17-10.2 17.2 10zm.1-1.8L29.9 12.8 12.8 23V9.4L30 7.6l17.2 1.8V23z"/></symbol><symbol id="icon-gift" viewBox="0 0 32 38"><path d="M30.578 11.206H18.184c6.908-3.444 7.467-5.622 7.213-6.838-.559-1.975-2.845-3.495-4.978-2.685-2.794 1.064-3.556 5.218-4.317 8.206-.966-3.04-1.88-6.889-4.064-8.864-.61-.557-1.524-1.114-2.895-1.013-2.032.203-4.927 2.684-3.708 5.47 1.117 2.685 4.825 4.407 7.314 5.775H1.422C.61 11.257 0 11.915 0 12.675v5.672c0 .811.66 1.419 1.422 1.419h.153V38h28.952V19.766h.05c.813 0 1.423-.659 1.423-1.418v-5.673c0-.81-.66-1.47-1.422-1.47ZM21.232 2.95c1.066-.152 2.489.658 2.641 1.62.203 1.368-1.676 2.634-2.54 3.192-1.27.86-2.489 1.316-3.657 2.026.407-1.874 1.27-6.534 3.556-6.838ZM9.752 7.914c-1.117-.76-3.25-2.23-3.2-3.9.051-1.824 2.896-3.293 4.42-1.925 1.93 1.671 2.844 5.571 3.555 8.306-1.625-.81-3.15-1.418-4.775-2.481ZM12.75 36.48H3.048V19.765h9.701V36.48Zm0-18.235H1.524v-5.52h11.225v5.52Zm5.08 18.235h-3.607V12.724h3.607V36.48Zm11.174 0h-9.65V19.765h9.701V36.48h-.05Zm1.473-18.235H19.352v-5.52h11.124v5.52Z" fill="#81B3D2"/></symbol><symbol id="like-icon" viewBox="0 0 23 21"><path opacity=".3" d="m12.964 3.78-.628 3.045-.627 2.625h9.096v2.205L17.773 18.9h-9.41V8.4l4.6-4.62ZM2.09 10.5v8.4-8.4ZM13.8 0 6.9 6.93c-.418.315-.627.84-.627 1.47v10.5c0 1.155.94 2.1 2.09 2.1h9.41c.836 0 1.568-.525 1.881-1.26l3.137-7.455c.104-.21.104-.525.104-.735v-2.1H23c0-1.155-.94-2.1-2.09-2.1h-6.587l1.045-4.83v-.315c0-.42-.209-.84-.418-1.155L13.8 0ZM4.182 8.4H0V21h4.182V8.4Z" fill="#000"/></symbol><symbol id="mail" viewBox="0 0 16 12"><path d="M8 8c-.3 0-.5-.1-1-.3L0 4v7c0 .5.5 1 1 1h14c.5 0 1-.5 1-1V4L9 7.7c-.5.2-.7.3-1 .3Zm7-8H1C.5 0 0 .5 0 1v.8L8 6l8-4.2V1c0-.5-.5-1-1-1Z" fill="#000"/></symbol><symbol id="phone" viewBox="0 0 18 18"><path d="M3.6 7.8c1.4 2.8 3.8 5.1 6.6 6.6l2.2-2.2c.3-.3.7-.4 1-.2 1.1.4 2.3.6 3.6.6.6 0 1 .4 1 1V17c0 .6-.4 1-1 1C7.6 18 0 10.4 0 1c0-.6.4-1 1-1h3.5c.6 0 1 .4 1 1 0 1.2.2 2.4.6 3.6.1.3 0 .7-.2 1L3.6 7.8Z" fill="#010101"/></symbol><symbol id="telegram" viewBox="0 0 48 48"><path fill="#81B3D2" d="M0 0h48v48H0z"/><path d="m34.44 16.622-3.17 14.944c-.239 1.055-.862 1.317-1.748.82l-4.828-3.558-2.33 2.242c-.258.258-.473.473-.97.473l.347-4.917 8.948-8.086c.39-.346-.084-.54-.604-.192l-11.063 6.966-4.762-1.491c-1.036-.323-1.055-1.036.216-1.533l18.627-7.177c.863-.323 1.617.192 1.336 1.51Z" fill="#fff"/></symbol><symbol id="tick"><path d="M21.805 1.307 20.76.222c-.285-.296-.856-.296-1.141 0L8.298 11.957 2.403 5.843c-.286-.296-.856-.296-1.142 0L.214 6.928c-.285.295-.285.887 0 1.183l7.419 7.692c.19.197.38.197.57.197.191 0 .381-.099.571-.197L21.615 2.49c.476-.296.476-.789.19-1.183Z" fill="#333"/></symbol><symbol id="vk" viewBox="0 0 48 48"><path fill="#81B3D2" d="M0 0h48v48H0z"/><g clip-path="url(#a)"><path fill-rule="evenodd" clip-rule="evenodd" d="M35.45 17.948c.166-.546 0-.948-.795-.948H32.03c-.668 0-.976.347-1.143.73 0 0-1.335 3.196-3.226 5.272-.612.602-.89.793-1.224.793-.167 0-.418-.191-.418-.738v-5.109c0-.656-.184-.948-.74-.948h-4.128c-.417 0-.668.304-.668.593 0 .621.946.765 1.043 2.513v3.798c0 .833-.153.984-.487.984-.89 0-3.055-3.211-4.34-6.885-.249-.715-.501-1.003-1.172-1.003H12.9c-.75 0-.9.347-.9.73 0 .682.89 4.07 4.145 8.551C18.315 29.341 21.37 31 24.153 31c1.669 0 1.875-.368 1.875-1.003v-2.313c0-.737.158-.884.687-.884.39 0 1.057.192 2.615 1.667C31.11 30.216 31.403 31 32.405 31h2.625c.75 0 1.126-.368.91-1.096-.238-.724-1.088-1.775-2.215-3.022-.612-.71-1.53-1.475-1.809-1.858-.389-.491-.278-.71 0-1.147 0 0 3.2-4.426 3.533-5.929h.001Z" fill="#fff"/></g></symbol><symbol id="youtube" viewBox="0 0 48 48"><path fill="#81B3D2" d="M0 0h48v48H0z"/><path d="M31.181 17H16.813C15.306 17 14 18.3 14 19.8v8.3c0 1.6 1.306 2.9 2.813 2.9h14.368c1.608 0 2.814-1.3 2.814-2.8v-8.4c.1-1.5-1.206-2.8-2.814-2.8ZM21.033 27.4v-6.8l6.833 3.4-6.833 3.4Z" fill="#fff"/></symbol></svg>