<svg width="23" height="23" viewBox="0 0 23 23" fill="none" xmlns="http://www.w3.org/2000/svg">
<rect width="23" height="23" fill="#E7E5E5"/>
<g clip-path="url(#clip0_72_100)">
<rect x="-278" y="-17" width="320" height="3383" fill="white"/>
<rect x="-278" y="-17" width="320" height="56" fill="white"/>
<path d="M21.9 0H-1V4H21.9V0Z" fill="#81B3D2"/>
<path d="M21.9 9H-1V13H21.9V9Z" fill="#81B3D2"/>
<path d="M21.9 18H-1V22H21.9V18Z" fill="#81B3D2"/>
<rect x="-278" y="13" width="320" height="193" fill="#81B3D2"/>
<g filter="url(#filter0_d_72_100)">
<rect x="-278" y="-17" width="320" height="55" fill="#81B3D2"/>
</g>
<path d="M22.2 2.8L19.4 0L11.1 8.3L2.8 0L0 2.8L8.3 11.1L0 19.4L2.8 22.2L11.1 13.9L19.4 22.2L22.2 19.4L13.9 11.1L22.2 2.8Z" fill="white"/>
</g>
<defs>
<filter id="filter0_d_72_100" x="-278" y="-17" width="320" height="56" filterUnits="userSpaceOnUse" color-interpolation-filters="sRGB">
<feFlood flood-opacity="0" result="BackgroundImageFix"/>
<feColorMatrix in="SourceAlpha" type="matrix" values="0 0 0 0 0 0 0 0 0 0 0 0 0 0 0 0 0 0 127 0" result="hardAlpha"/>
<feOffset dy="1"/>
<feColorMatrix type="matrix" values="0 0 0 0 0.00392157 0 0 0 0 0.00392157 0 0 0 0 0.00392157 0 0 0 0.2 0"/>
<feBlend mode="normal" in2="BackgroundImageFix" result="effect1_dropShadow_72_100"/>
<feBlend mode="normal" in="SourceGraphic" in2="effect1_dropShadow_72_100" result="shape"/>
</filter>
<clipPath id="clip0_72_100">
<rect width="320" height="666" fill="white" transform="translate(-278 -17)"/>
</clipPath>
</defs>
</svg>
